<?xml version="1.0" encoding="iso-8859-1"?>
<!-- Generator: Adobe Illustrator 18.0.0, SVG Export Plug-In . SVG Version: 6.00 Build 0)  -->
<!DOCTYPE svg PUBLIC "-//W3C//DTD SVG 1.1//EN" "http://www.w3.org/Graphics/SVG/1.1/DTD/svg11.dtd">
<svg xmlns="http://www.w3.org/2000/svg" xmlns:xlink="http://www.w3.org/1999/xlink" version="1.1" id="Capa_1" x="0px" y="0px" viewBox="0 0 60 60" style="enable-background:new 0 0 60 60;" xml:space="preserve" width="264px" height="264px">
<g>
	<path d="M59,10.892H33c-0.553,0-1,0.448-1,1v8.125L22.054,2.611c-0.178-0.311-0.507-0.503-0.865-0.504c-0.001,0-0.002,0-0.003,0   c-0.356,0-0.686,0.19-0.865,0.498L0.135,37.39c-0.179,0.31-0.18,0.691-0.001,1.001c0.178,0.31,0.509,0.501,0.866,0.501h16.292   c-0.185,0.973-0.292,1.974-0.292,3c0,8.822,7.178,16,16,16s16-7.178,16-16c0-1.026-0.106-2.027-0.292-3H59c0.553,0,1-0.448,1-1v-26   C60,11.34,59.552,10.892,59,10.892z M2.736,36.892L21.179,5.111L32,24.048v1.875c-0.128,0.008-0.254,0.028-0.382,0.039   c-0.168,0.014-0.334,0.031-0.5,0.051c-0.324,0.039-0.645,0.089-0.963,0.147c-0.167,0.03-0.336,0.055-0.501,0.09   c-0.417,0.09-0.828,0.196-1.234,0.318c-0.237,0.071-0.468,0.156-0.7,0.238c-0.19,0.067-0.381,0.134-0.568,0.208   c-0.254,0.1-0.504,0.206-0.751,0.319c-0.148,0.068-0.293,0.14-0.439,0.212c-0.875,0.431-1.702,0.938-2.478,1.515   c-0.114,0.085-0.229,0.168-0.341,0.255c-0.225,0.177-0.444,0.36-0.659,0.549c-0.121,0.106-0.239,0.215-0.357,0.325   c-0.207,0.193-0.414,0.385-0.611,0.589c-0.092,0.095-0.178,0.197-0.268,0.294c-0.363,0.394-0.704,0.804-1.027,1.233   c-0.099,0.132-0.201,0.261-0.297,0.396c-0.16,0.227-0.31,0.46-0.458,0.695c-0.089,0.142-0.177,0.285-0.261,0.43   c-0.146,0.249-0.288,0.5-0.421,0.757c-0.057,0.111-0.108,0.226-0.163,0.338c-0.31,0.636-0.585,1.291-0.81,1.971H2.736z    M45.861,47.413c-0.171-0.306-0.486-0.521-0.861-0.521c-0.552,0-1,0.448-1,1c0,0.552,0.448,1,1,1c0.043,0,0.079-0.019,0.121-0.024   c-1.233,2.135-3.01,3.911-5.145,5.145C39.981,53.971,40,53.935,40,53.892c0-0.552-0.448-1-1-1s-1,0.448-1,1   c0,0.375,0.215,0.69,0.521,0.861c-1.695,0.731-3.561,1.139-5.521,1.139s-3.826-0.408-5.521-1.139   C27.784,54.582,28,54.267,28,53.892c0-0.552-0.448-1-1-1s-1,0.448-1,1c0,0.043,0.019,0.079,0.024,0.121   c-2.135-1.233-3.912-3.01-5.145-5.145c0.042,0.005,0.078,0.024,0.121,0.024c0.552,0,1-0.448,1-1c0-0.552-0.448-1-1-1   c-0.375,0-0.69,0.215-0.861,0.521C19.408,45.718,19,43.852,19,41.892c0-1.302,0.192-2.557,0.526-3.754   c0.094-0.336,0.202-0.665,0.319-0.989c0.023-0.064,0.046-0.127,0.07-0.191c0.073-0.193,0.156-0.38,0.237-0.568   c0.174,0.295,0.481,0.502,0.848,0.502c0.552,0,1-0.448,1-1c0-0.552-0.448-1-1-1c-0.043,0-0.079,0.019-0.121,0.024   c0.006-0.011,0.013-0.021,0.019-0.032c0.523-0.902,1.144-1.733,1.843-2.488c0.055-0.059,0.107-0.12,0.162-0.179   c0.203-0.212,0.416-0.414,0.632-0.613c0.079-0.073,0.157-0.145,0.238-0.216c0.218-0.192,0.442-0.377,0.671-0.555   c0.08-0.062,0.162-0.122,0.243-0.182c0.242-0.18,0.487-0.355,0.741-0.519c0.047-0.031,0.097-0.058,0.145-0.088   c0.147-0.092,0.298-0.177,0.448-0.264C26.018,29.82,26,29.853,26,29.892c0,0.552,0.448,1,1,1s1-0.448,1-1   c0-0.372-0.213-0.684-0.514-0.857c0.228-0.099,0.462-0.185,0.696-0.271c0.135-0.05,0.269-0.103,0.406-0.149   c0.223-0.075,0.451-0.139,0.678-0.202c0.191-0.053,0.384-0.104,0.578-0.149c0.201-0.047,0.404-0.09,0.608-0.129   c0.25-0.046,0.502-0.083,0.756-0.116c0.164-0.021,0.327-0.047,0.493-0.062c0.429-0.04,0.861-0.066,1.3-0.066s0.871,0.026,1.3,0.066   c0.165,0.016,0.328,0.041,0.493,0.062c0.254,0.033,0.506,0.07,0.756,0.116c0.204,0.038,0.407,0.081,0.608,0.129   c0.195,0.045,0.387,0.096,0.578,0.149c0.228,0.064,0.455,0.128,0.678,0.202c0.137,0.046,0.27,0.099,0.406,0.149   c0.234,0.086,0.468,0.172,0.696,0.271C38.212,29.208,38,29.52,38,29.892c0,0.552,0.448,1,1,1s1-0.448,1-1   c0-0.039-0.018-0.072-0.022-0.11c0.15,0.087,0.302,0.171,0.448,0.264c0.048,0.03,0.097,0.057,0.145,0.088   c0.253,0.164,0.498,0.34,0.741,0.519c0.081,0.06,0.163,0.12,0.243,0.182c0.229,0.178,0.453,0.363,0.671,0.555   c0.08,0.071,0.159,0.143,0.238,0.216c0.216,0.199,0.429,0.401,0.632,0.613c0.056,0.058,0.108,0.12,0.162,0.179   c0.699,0.755,1.32,1.587,1.843,2.488c0.006,0.011,0.013,0.021,0.019,0.032c-0.041-0.005-0.078-0.024-0.121-0.024   c-0.552,0-1,0.448-1,1c0,0.552,0.448,1,1,1c0.367,0,0.674-0.207,0.848-0.502c0.081,0.188,0.164,0.375,0.237,0.568   c0.024,0.063,0.047,0.127,0.07,0.191c0.117,0.324,0.225,0.653,0.319,0.989C46.808,39.335,47,40.59,47,41.892   C47,43.852,46.591,45.718,45.861,47.413z M58,36.892h-9.811c-0.225-0.68-0.5-1.336-0.81-1.972   c-0.054-0.112-0.105-0.226-0.162-0.337c-0.133-0.257-0.275-0.508-0.421-0.757c-0.085-0.145-0.172-0.288-0.262-0.43   c-0.148-0.235-0.298-0.468-0.457-0.694c-0.096-0.136-0.198-0.266-0.298-0.399c-0.322-0.428-0.663-0.838-1.025-1.231   c-0.09-0.097-0.175-0.199-0.268-0.294c-0.197-0.203-0.403-0.396-0.611-0.589c-0.118-0.11-0.236-0.219-0.357-0.325   c-0.215-0.189-0.434-0.372-0.659-0.549c-0.112-0.088-0.227-0.171-0.341-0.255c-0.776-0.577-1.604-1.084-2.479-1.515   c-0.146-0.072-0.291-0.144-0.438-0.211c-0.247-0.113-0.497-0.219-0.751-0.319c-0.188-0.074-0.378-0.141-0.568-0.208   c-0.233-0.082-0.463-0.167-0.7-0.238c-0.406-0.122-0.817-0.228-1.234-0.318c-0.165-0.035-0.334-0.06-0.501-0.09   c-0.319-0.058-0.639-0.109-0.963-0.147c-0.166-0.02-0.332-0.036-0.5-0.051c-0.128-0.011-0.253-0.031-0.382-0.039v-2.141v-10.89h24   V36.892z" fill="#6e6ac3"/>
	<circle cx="33" cy="29.892" r="1" fill="#6e6ac3"/>
	<circle cx="21" cy="41.892" r="1" fill="#6e6ac3"/>
	<circle cx="33" cy="41.892" r="1" fill="#6e6ac3"/>
	<circle cx="24" cy="32.892" r="1" fill="#6e6ac3"/>
	<circle cx="27" cy="35.892" r="1" fill="#6e6ac3"/>
	<circle cx="33" cy="35.892" r="1" fill="#6e6ac3"/>
	<circle cx="30" cy="32.892" r="1" fill="#6e6ac3"/>
	<circle cx="24" cy="38.892" r="1" fill="#6e6ac3"/>
	<circle cx="27" cy="41.892" r="1" fill="#6e6ac3"/>
	<circle cx="30" cy="38.892" r="1" fill="#6e6ac3"/>
	<circle cx="36" cy="32.892" r="1" fill="#6e6ac3"/>
	<circle cx="36" cy="38.892" r="1" fill="#6e6ac3"/>
	<circle cx="39" cy="41.892" r="1" fill="#6e6ac3"/>
	<circle cx="39" cy="35.892" r="1" fill="#6e6ac3"/>
	<circle cx="42" cy="32.892" r="1" fill="#6e6ac3"/>
	<circle cx="42" cy="38.892" r="1" fill="#6e6ac3"/>
	<circle cx="45" cy="41.892" r="1" fill="#6e6ac3"/>
	<circle cx="33" cy="53.892" r="1" fill="#6e6ac3"/>
	<circle cx="24" cy="44.892" r="1" fill="#6e6ac3"/>
	<circle cx="27" cy="47.892" r="1" fill="#6e6ac3"/>
	<circle cx="33" cy="47.892" r="1" fill="#6e6ac3"/>
	<circle cx="30" cy="44.892" r="1" fill="#6e6ac3"/>
	<circle cx="24" cy="50.892" r="1" fill="#6e6ac3"/>
	<circle cx="30" cy="50.892" r="1" fill="#6e6ac3"/>
	<circle cx="36" cy="44.892" r="1" fill="#6e6ac3"/>
	<circle cx="36" cy="50.892" r="1" fill="#6e6ac3"/>
	<circle cx="39" cy="47.892" r="1" fill="#6e6ac3"/>
	<circle cx="42" cy="44.892" r="1" fill="#6e6ac3"/>
	<circle cx="42" cy="50.892" r="1" fill="#6e6ac3"/>
</g>
<g>
</g>
<g>
</g>
<g>
</g>
<g>
</g>
<g>
</g>
<g>
</g>
<g>
</g>
<g>
</g>
<g>
</g>
<g>
</g>
<g>
</g>
<g>
</g>
<g>
</g>
<g>
</g>
<g>
</g>
</svg>
