<svg viewBox="0 0 60 38" xmlns="http://www.w3.org/2000/svg">
	<path d="M 56.9318 16.0769L 42.6989 1.71946C 41.5909 0.601811 40.142 6.55921e-07 38.5227 6.55921e-07C 36.9034 6.55921e-07 35.4545 0.601811 34.3466 1.71946C 33.8352 2.23529 33.8352 3.00905 34.3466 3.52489C 34.858 4.04072 35.625 4.04072 36.1364 3.52489C 36.8182 2.8371 37.5852 2.49321 38.5227 2.49321C 39.4602 2.49321 40.3125 2.8371 40.9091 3.52489L 50.9659 13.6697C 50.8807 13.6697 50.7955 13.6697 50.7102 13.6697L 46.4489 13.6697L 41.0795 13.6697L 19.0909 13.6697L 13.2102 13.6697L 9.375 13.6697C 9.28977 13.6697 9.20454 13.6697 9.11932 13.6697L 19.0909 3.52489C 19.7727 2.8371 20.5398 2.49321 21.4773 2.49321C 22.4148 2.49321 23.267 2.8371 23.8636 3.52489C 24.375 4.04072 25.142 4.04072 25.6534 3.52489C 26.1648 3.00905 26.1648 2.23529 25.6534 1.71946C 24.5455 0.601811 23.0966 6.55921e-07 21.4773 6.55921e-07C 19.858 6.55921e-07 18.4091 0.601811 17.3011 1.71946L 2.8125 16.3348C 2.72727 16.4208 2.72727 16.4208 2.64205 16.5068L 2.47159 16.6787C 2.38636 16.7647 2.38636 16.7647 2.30114 16.8507C 0.852273 18.4842 3.25116e-07 20.6335 3.25116e-07 23.0407L 3.25116e-07 28.629C 3.25116e-07 33.7873 4.17614 38 9.28977 38L 13.4659 38C 21.6477 38 28.2955 31.2941 28.2955 23.0407C 28.2955 22.267 28.2102 21.5792 28.0398 20.8054C 28.5511 20.3756 29.233 20.1176 30 20.1176C 30.6818 20.1176 31.3636 20.3756 31.9602 20.8054C 31.7898 21.4932 31.7045 22.267 31.7045 23.0407C 31.7045 31.2941 38.3523 38 46.5341 38L 50.7102 38C 55.8239 38 60 33.7873 60 28.629L 60 23.0407C 60 20.2896 58.8068 17.7964 56.9318 16.0769ZM 13.5511 35.4208L 9.71591 35.4208C 9.20454 35.4208 8.86364 34.733 9.28977 34.3032L 20.5398 22.9548C 21.0511 22.4389 21.0511 21.5792 20.4545 21.0633C 19.9432 20.6335 19.1761 20.7195 18.75 21.2353L 6.5625 33.5294C 6.05114 34.0452 5.19886 34.0452 4.6875 33.6154C 4.17614 33.0995 4.17614 32.2398 4.6875 31.724C 6.5625 29.8326 10.9943 25.362 12.4432 23.9005C 12.8693 23.4706 12.9545 22.6968 12.6136 22.181C 12.1023 21.5792 11.25 21.5792 10.7386 22.095L 3.66477 29.0588C 3.23864 29.4887 2.55682 29.1448 2.55682 28.629L 2.55682 23.0407C 2.55682 21.2353 3.32386 19.5158 4.43182 18.3122L 4.60227 18.1403C 5.79545 16.9367 7.5 16.2489 9.28977 16.2489L 13.125 16.2489L 19.0909 16.2489C 22.8409 16.2489 25.8239 19.2579 25.9091 23.0407C 25.9091 29.8326 20.3693 35.4208 13.5511 35.4208ZM 30 17.6244C 28.9773 17.6244 27.9545 17.8824 27.1023 18.4842C 26.6761 17.6244 26.0795 16.9366 25.3977 16.2489L 34.6023 16.2489C 33.9205 16.8507 33.3239 17.6244 32.8977 18.4842C 32.0455 17.8824 31.0227 17.6244 30 17.6244ZM 57.4432 28.629C 57.4432 32.4118 54.375 35.5068 50.625 35.5068L 46.4489 35.5068C 45.5966 35.5068 44.8295 35.4208 44.0625 35.2489C 43.4659 35.1629 43.2955 34.4751 43.7216 34.0452L 54.7159 22.9548C 55.2273 22.4389 55.2273 21.5792 54.6307 21.0633C 54.1193 20.6335 53.3523 20.7195 52.9261 21.2353L 41.1648 33.0136C 40.7386 33.4434 39.9716 33.5294 39.4602 33.1855C 38.7784 32.6697 38.6932 31.724 39.2898 31.1222L 46.6193 23.7285C 47.0455 23.2986 47.2159 22.5249 46.7898 22.009C 46.2784 21.4072 45.4261 21.4072 44.9148 21.9231L 37.7557 29.1448C 37.1591 29.7466 36.0511 29.5747 35.625 28.8009C 34.6875 27.0814 34.1761 25.1041 34.2614 22.9548C 34.2614 19.1719 37.3295 16.1629 41.0795 16.1629L 46.3636 16.1629L 50.625 16.1629C 52.3295 16.1629 53.8636 16.7647 55.0568 17.8824L 55.6534 18.4842C 56.7614 19.6878 57.358 21.3213 57.358 23.0407L 57.358 28.629L 57.4432 28.629Z" />
	<linearGradient id="linear" x2="1" gradientUnits="userSpaceOnUse" gradientTransform="matrix(62 78 -78 62 39 -26)">
		<stop stop-color="#F527E0"/>
		<stop offset="1" stop-color="#FF8E26"/>
	</linearGradient>
</svg>
