<svg viewBox="-10 -10 65 65" xmlns="http://www.w3.org/2000/svg">
	<path d="M 41.3208 22.5C 41.3208 19.9528 40.7547 17.5472 39.7642 15.1415C 38.7736 12.8773 37.3585 10.7547 35.8019 9.19812C 34.2453 7.64152 32.1226 6.2264 29.8585 5.23583C 27.5943 4.24527 25.0472 3.67926 22.5 3.67926C 19.9528 3.67926 17.5472 4.24527 15.1415 5.23583C 12.8774 6.2264 10.7547 7.64152 9.1981 9.19812C 7.6415 10.7547 6.22642 12.8773 5.23586 15.1415C 4.24529 17.4056 3.67925 19.9528 3.67925 22.5C 3.67925 26.6038 4.95284 30.283 7.3585 33.6792C 9.76416 37.0755 13.0189 39.3396 16.8396 40.4717L 16.8396 35.5189C 15.7076 35.6604 15.1415 35.6604 14.8585 35.6604C 12.7358 35.6604 11.1792 34.6698 10.3302 32.6887C 10.0472 31.9811 9.62263 31.2736 9.1981 30.849C 9.0566 30.7075 8.91509 30.566 8.63208 30.283C 8.34906 30 8.06603 29.8585 7.78301 29.5755C 7.49999 29.2925 7.3585 29.151 7.3585 29.151C 7.3585 28.8679 7.64151 28.8679 8.20754 28.8679C 8.77358 28.8679 9.33963 29.0094 9.76416 29.2924C 10.1887 29.5755 10.6132 29.8585 10.8962 30.283C 11.1793 30.7075 11.4623 31.1321 11.8868 31.5566C 12.1698 31.9811 12.5943 32.2642 13.0189 32.5472C 13.4434 32.8302 14.0094 32.9717 14.717 32.9717C 15.566 32.9717 16.2736 32.8302 17.1226 32.5472C 17.4057 31.4151 18.1132 30.5661 18.9623 29.8585C 15.7076 29.5755 13.3019 28.7264 11.7453 27.4528C 10.1887 26.1792 9.33962 23.9151 9.33962 20.8019C 9.33962 18.5377 10.0472 16.5566 11.4623 15C 11.1792 14.151 11.0377 13.3019 11.0377 12.4528C 11.0377 11.3207 11.3208 10.1887 11.8868 9.19812C 13.0189 9.19812 14.0094 9.33962 14.8585 9.76415C 15.7075 10.1887 16.6981 10.7547 17.8302 11.6038C 19.3868 11.3207 20.9434 11.0377 22.783 11.0377C 24.3396 11.0377 25.8962 11.1793 27.3113 11.4623C 28.4434 10.6132 29.434 10.0472 30.283 9.76415C 31.1321 9.33962 32.1226 9.19812 33.2547 9.19812C 33.8207 10.1887 34.1038 11.3207 34.1038 12.4528C 34.1038 13.3019 33.9623 14.151 33.6792 14.8585C 35.0943 16.4151 35.8019 18.3962 35.8019 20.6604C 35.8019 23.7736 34.9528 25.8962 33.3962 27.3113C 31.8396 28.7264 29.434 29.434 26.1792 29.717C 27.5943 30.7076 28.1604 31.9811 28.1604 33.5377L 28.1604 40.1887C 32.1226 38.9151 35.2359 36.651 37.6415 33.3962C 40.0472 30.283 41.3208 26.6038 41.3208 22.5ZM 45 22.5C 45 26.6038 44.0094 30.4245 42.0283 33.8208C 40.0472 37.3585 37.217 40.0472 33.8208 42.0283C 30.283 44.0094 26.6038 45 22.5 45C 18.3962 45 14.5755 44.0094 11.1792 42.0283C 7.64151 40.0472 4.95283 37.217 2.9717 33.8208C 0.990566 30.283 -8.63705e-06 26.6038 -8.63705e-06 22.5C -8.63705e-06 18.3962 0.990566 14.5755 2.9717 11.1792C 4.95283 7.64151 7.78302 4.95285 11.1792 2.97172C 14.717 0.990584 18.3962 8.63705e-06 22.5 8.63705e-06C 26.6038 8.63705e-06 30.4245 0.990584 33.8208 2.97172C 37.3585 4.95285 40.0472 7.78302 42.0283 11.1792C 44.0094 14.5755 45 18.3962 45 22.5Z"/>
</svg>