<svg viewBox="-5 -10 82 82" xmlns="http://www.w3.org/2000/svg">
	<path d="M 62 4.87823C 62 2.27651 59.8912 0.170351 57.2243 0.0464593C 56.0458 -0.0154864 54.8674 -0.0154864 53.5649 0.0464593C 51.022 0.170351 48.9752 2.02872 48.8512 4.44461C 48.7892 5.55963 48.7892 6.7366 48.7892 7.85162C 48.7892 8.34719 48.7892 8.9047 48.7892 9.40026L 48.7892 9.95778L 41.5325 9.95778L 41.5325 7.97551C 41.5325 6.92243 41.5325 5.86936 41.5325 4.81628C 41.4705 2.27651 39.3617 0.232296 36.8188 0.108405C 36.1986 0.108405 35.6404 0.0464593 34.9581 0.0464593C 34.3999 0.0464593 33.7797 0.0464593 33.1595 0.108405C 30.5545 0.232296 28.4457 2.21456 28.3217 4.75433C 28.2597 5.9313 28.1977 7.47995 28.3217 9.02859C 28.3837 10.3914 28.0736 11.6303 27.2673 12.9931C 23.8561 18.878 20.4448 24.7628 16.9715 30.6476C 11.5136 40.0015 6.05556 49.3553 0.597568 58.7091C -0.0226583 59.7621 -0.146704 60.6294 0.16341 61.1869C 0.473523 61.7444 1.34184 62.0541 2.52027 61.9922C 8.84658 61.8063 15.1729 61.8683 20.4448 61.9922C 22.0574 61.9922 22.9877 61.4966 23.794 60.0719C 27.0192 54.3729 30.3684 48.6739 33.5936 43.0987L 36.7568 37.7095C 36.8808 37.4617 37.0669 37.2758 37.253 36.9661L 38.5554 35.0458L 38.5554 59.948C 38.5554 61.5586 39.3617 61.8063 39.982 61.8063C 40.4161 61.8063 40.7882 61.7444 41.0363 61.4966C 41.3465 61.1869 41.5325 60.6913 41.5325 59.886C 41.5325 59.0807 41.5325 58.2754 41.5325 57.4701L 41.5325 55.7976L 58.9609 55.7976L 58.9609 56.4171C 58.9609 56.8507 58.9609 57.2843 58.9609 57.656C 58.9609 58.5232 58.9609 59.3905 58.9609 60.1958C 59.0849 61.8063 59.9533 61.9302 60.5735 61.8683C 61.7519 61.8063 61.938 60.6913 61.938 60.0719L 61.938 56.4171C 62 39.2581 62 22.0991 62 4.87823ZM 50.8979 13.4887C 51.146 13.117 51.7042 12.9931 51.9523 12.9931C 53.5029 12.9931 55.1155 12.9931 56.7281 12.9931L 58.7748 12.9931L 58.7748 20.6124L 46.6804 20.6124L 47.8588 18.5682C 48.9132 16.8338 49.9056 15.1612 50.8979 13.4887ZM 31.2988 5.18795C 31.2988 5.06406 31.2988 4.94017 31.3608 4.81628C 31.795 2.95791 33.4696 2.77207 36.3226 3.01985C 37.8112 3.14375 38.6175 3.94904 38.6175 5.43574C 38.6175 6.05519 38.6175 6.7366 38.6175 7.35605L 38.6175 8.84275C 38.6175 8.96664 38.6175 9.15248 38.5554 9.27637L 38.3694 9.95778L 31.2988 9.95778L 31.2988 5.18795ZM 39.9199 26.2495C 33.8417 36.6564 27.8255 47.1252 21.7473 57.5321C 21.1271 58.5852 20.4448 59.0188 19.2664 59.0188L 19.2044 59.0188C 15.7931 58.9568 12.3819 58.9568 8.9086 59.0188L 4.00881 59.0188L 15.8551 38.7006C 20.5068 30.5238 25.2206 22.4708 29.9343 14.294C 30.4925 13.3028 31.1747 12.9312 32.2911 12.9312C 35.8264 12.9931 39.2997 12.9931 42.897 12.9312L 47.4867 12.9312L 46.8665 14.1701C 46.7424 14.4798 46.5564 14.7895 46.4323 15.0373L 39.9199 26.2495ZM 58.8368 52.7623L 41.6566 52.7623L 41.6566 45.3288L 58.8368 45.3288L 58.8368 52.7623ZM 41.6566 42.0457L 41.6566 34.4883L 58.7748 34.4883L 58.7748 41.9837L 41.6566 41.9837L 41.6566 42.0457ZM 58.8368 31.391L 41.3465 31.391L 41.9667 28.7893L 42.0907 28.6034C 42.3388 28.1698 42.5869 27.6743 42.835 27.1787C 43.3932 25.9398 44.0134 24.7009 45.1298 24.0814C 46.1842 23.4619 47.6107 23.5858 48.9752 23.6478C 49.5334 23.7097 50.0916 23.7097 50.5258 23.7097C 52.3245 23.7097 54.0611 23.7097 55.9218 23.7097L 58.8989 23.7097L 58.8989 31.391L 58.8368 31.391ZM 58.8989 9.46221L 58.8989 9.95778L 51.7663 9.95778L 51.7663 9.46221C 51.7663 9.02859 51.7663 8.53302 51.7663 8.0994C 51.7663 7.04633 51.7042 5.99325 51.8283 5.00212C 51.9523 3.0818 53.5029 3.01985 56.2319 3.01985C 56.9762 3.01985 58.8989 3.01985 58.9609 5.06406C 59.0229 6.05519 58.9609 7.04633 58.9609 8.0994C 58.8989 8.53302 58.8989 8.96664 58.8989 9.46221Z"/>
</svg>
